<?xml version="1.0" encoding="utf-8"?>
<!-- Uploaded to: SVG Repo, www.svgrepo.com, Generator: SVG Repo Mixer Tools -->
<svg width="800px" height="800px" viewBox="0 0 1024 1024" class="icon"  version="1.1" xmlns="http://www.w3.org/2000/svg"><path d="M512 569.2m-10 0a10 10 0 1 0 20 0 10 10 0 1 0-20 0Z" fill="#E73B37" /><path d="M611.8 617.1H406.5L108 390.3v20.1l293 222.7h216l299-223.3v-20L611.8 617.1z" fill="#E73B37" /><path d="M704 256.8v-94.5H320v94.5H64v605h896v-605H704z m-340-50.5h296v50.4H364v-50.4z m552 611.5H108V769h808v48.8z m0-64.9H108V300.8h808v452.1z" fill="#39393A" /></svg>