<svg xmlns="http://www.w3.org/2000/svg" width="400" viewBox="0 0 3250 375" height="375" version="1.0">
    <defs>
        <clipPath id="a">
            <path d="M 2066 81 L 2218 81 L 2218 230 L 2066 230 Z M 2066 81" />
        </clipPath>
        <clipPath id="b">
            <path d="M 2219.007812 299.066406 L 1919.816406 305.023438 L 1915.25 75.566406 L 2214.441406 69.613281 Z M 2219.007812 299.066406" />
        </clipPath>
        <clipPath id="c">
            <path d="M 1915.164062 75.933594 L 2214.355469 69.976562 L 2218.921875 299.433594 L 1919.730469 305.386719 Z M 1915.164062 75.933594" />
        </clipPath>
        <clipPath id="d">
            <path d="M 2217.234375 229.171875 C 2217.234375 229.171875 2109.949219 198.769531 2086.238281 175.9375 C 2062.527344 153.109375 2059.578125 117.636719 2079.652344 96.707031 C 2099.726562 75.777344 2135.222656 77.320312 2158.933594 100.148438 C 2182.644531 122.976562 2217.234375 229.171875 2217.234375 229.171875 Z M 2217.234375 229.171875" />
        </clipPath>
        <clipPath id="e">
            <path d="M 1916 149 L 2068 149 L 2068 297 L 1916 297 Z M 1916 149" />
        </clipPath>
        <clipPath id="f">
            <path d="M 2219.007812 299.066406 L 1919.816406 305.023438 L 1915.25 75.566406 L 2214.441406 69.613281 Z M 2219.007812 299.066406" />
        </clipPath>
        <clipPath id="g">
            <path d="M 1915.164062 75.933594 L 2214.355469 69.976562 L 2218.921875 299.433594 L 1919.730469 305.386719 Z M 1915.164062 75.933594" />
        </clipPath>
        <clipPath id="h">
            <path d="M 1916.925781 149.691406 C 1916.925781 149.691406 1951.515625 255.886719 1975.226562 278.714844 C 1998.9375 301.542969 2034.433594 303.085938 2054.507812 282.15625 C 2074.582031 261.226562 2071.632812 225.753906 2047.921875 202.925781 C 2024.210938 180.09375 1916.925781 149.691406 1916.925781 149.691406 Z M 1916.925781 149.691406" />
        </clipPath>
        <clipPath id="i">
            <path d="M 1955 79 L 2177 79 L 2177 296 L 1955 296 Z M 1955 79" />
        </clipPath>
        <clipPath id="j">
            <path d="M 2219.007812 299.066406 L 1919.816406 305.023438 L 1915.25 75.566406 L 2214.441406 69.613281 Z M 2219.007812 299.066406" />
        </clipPath>
        <clipPath id="k">
            <path d="M 1915.164062 75.933594 L 2214.355469 69.976562 L 2218.921875 299.433594 L 1919.730469 305.386719 Z M 1915.164062 75.933594" />
        </clipPath>
        <clipPath id="l">
            <path d="M 2160.542969 227.441406 C 2151.75 218.976562 2128.652344 208.507812 2107.070312 199.933594 C 2082.195312 190.050781 2063.054688 171.621094 2052.207031 147.113281 C 2042.796875 125.847656 2031.441406 103.144531 2022.648438 94.675781 C 2004.386719 77.09375 1978.25 74.660156 1964.269531 89.238281 C 1950.285156 103.8125 1953.753906 129.882812 1972.015625 147.464844 C 1980.808594 155.929688 2003.90625 166.394531 2025.488281 174.972656 C 2050.363281 184.855469 2069.503906 203.285156 2080.351562 227.792969 C 2089.761719 249.058594 2101.117188 271.761719 2109.910156 280.230469 C 2128.171875 297.808594 2154.308594 300.246094 2168.289062 285.667969 C 2182.273438 271.09375 2178.800781 245.023438 2160.542969 227.441406 Z M 2160.542969 227.441406" />
        </clipPath>
    </defs>
    <g>
        <g>
            <g>
                <path d="M 34.625 -23.875 C 17.207031 -40.789062 8.5 -62.25 8.5 -88.25 C 8.5 -114.25 17.207031 -135.707031 34.625 -152.625 C 52.039062 -169.539062 73.332031 -178 98.5 -178 C 118 -178 135.332031 -172.832031 150.5 -162.5 C 165.664062 -152.164062 176.25 -137.832031 182.25 -119.5 L 131.25 -119.5 C 124.582031 -132.332031 113.914062 -138.75 99.25 -138.75 C 84.582031 -138.75 73.039062 -134.164062 64.625 -125 C 56.207031 -115.832031 52 -103.582031 52 -88.25 C 52 -72.914062 56.207031 -60.664062 64.625 -51.5 C 73.039062 -42.332031 84.582031 -37.75 99.25 -37.75 C 113.914062 -37.75 124.582031 -44.164062 131.25 -57 L 182.25 -57 C 176.25 -38.664062 165.664062 -24.332031 150.5 -14 C 135.332031 -3.664062 118 1.5 98.5 1.5 C 73.332031 1.5 52.039062 -6.957031 34.625 -23.875 Z M 34.625 -23.875" transform="translate(514.14 273.21)" />
            </g>
        </g>
    </g>
    <g>
        <g>
            <g>
                <path d="M 18.75 -175.5 L 61.5 -175.5 L 61.5 -32.5 L 114.75 -32.5 L 114.75 0 L 18.75 0 Z M 18.75 -175.5" transform="translate(830.138 273.21)" />
            </g>
        </g>
    </g>
    <g>
        <g>
            <g>
                <path d="M 125 -176 L 125 -143.5 L 61.5 -143.5 L 61.5 -105.75 L 117.5 -105.75 L 117.5 -73.25 L 61.5 -73.25 L 61.5 -32.5 L 125 -32.5 L 125 0 L 18.75 0 L 18.75 -176 Z M 125 -176" transform="translate(1074.887 273.21)" />
            </g>
        </g>
    </g>
    <g>
        <g>
            <g>
                <path d="M 130.25 0 L 120.5 -29.5 L 57.5 -29.5 L 47.75 0 L 2.25 0 L 63.25 -176 L 115.25 -176 L 176 0 Z M 68.25 -62 L 109.75 -62 L 89 -124.5 Z M 68.25 -62" transform="translate(1342.885 273.21)" />
            </g>
        </g>
    </g>
    <g>
        <g>
            <g>
                <path d="M 61.5 -68.25 L 61.5 0 L 18.75 0 L 18.75 -175.5 L 88 -175.5 C 108.332031 -175.5 124.164062 -170.25 135.5 -159.75 C 146.832031 -149.25 152.5 -136.582031 152.5 -121.75 C 152.5 -111.582031 149.414062 -101.664062 143.25 -92 C 137.082031 -82.332031 127 -75.5 113 -71.5 L 156 0 L 106 0 L 66.5 -68.25 Z M 61.5 -143 L 61.5 -100.75 L 88 -100.75 C 94.5 -100.75 99.625 -102.664062 103.375 -106.5 C 107.125 -110.332031 109 -115.375 109 -121.625 C 109 -127.875 107.082031 -133 103.25 -137 C 99.414062 -141 94.332031 -143 88 -143 Z M 61.5 -143" transform="translate(1646.133 273.21)" />
            </g>
        </g>
    </g>
    <g>
        <g>
            <g>
                <path d="M 213.5 -175.5 L 259.5 -175.5 L 210.5 0 L 161.5 0 L 130.75 -111.25 L 100.25 0 L 51.25 0 L 1.5 -175.5 L 47.25 -175.5 L 77.75 -49.25 L 109 -175.5 L 157.5 -175.5 L 187.5 -51.25 Z M 213.5 -175.5" transform="translate(2338.117 273.21)" />
            </g>
        </g>
    </g>
    <g>
        <g>
            <g>
                <path d="M 125 -176 L 125 -143.5 L 61.5 -143.5 L 61.5 -105.75 L 117.5 -105.75 L 117.5 -73.25 L 61.5 -73.25 L 61.5 -32.5 L 125 -32.5 L 125 0 L 18.75 0 L 18.75 -176 Z M 125 -176" transform="translate(2724.364 273.21)" />
            </g>
        </g>
    </g>
    <g>
        <g>
            <g>
                <path d="M 18.75 -175.5 L 95 -175.5 C 112.832031 -175.5 127.039062 -171.164062 137.625 -162.5 C 148.207031 -153.832031 153.5 -142.832031 153.5 -129.5 C 153.5 -109.664062 141.914062 -96.25 118.75 -89.25 C 130.582031 -87.582031 140 -82.664062 147 -74.5 C 154 -66.332031 157.5 -56.75 157.5 -45.75 C 157.5 -31.75 152.375 -20.625 142.125 -12.375 C 131.875 -4.125 117.582031 0 99.25 0 L 18.75 0 Z M 61.5 -143 L 61.5 -105 L 89.5 -105 C 95.664062 -105 100.625 -106.582031 104.375 -109.75 C 108.125 -112.914062 110 -117.625 110 -123.875 C 110 -130.125 108.125 -134.875 104.375 -138.125 C 100.625 -141.375 95.664062 -143 89.5 -143 Z M 61.5 -32.5 L 93.75 -32.5 C 99.582031 -32.5 104.414062 -34.25 108.25 -37.75 C 112.082031 -41.25 114 -46.082031 114 -52.25 C 114 -58.414062 112.164062 -63.332031 108.5 -67 C 104.832031 -70.664062 100.082031 -72.5 94.25 -72.5 L 61.5 -72.5 Z M 61.5 -32.5" transform="translate(2992.362 273.21)" />
            </g>
        </g>
    </g>
    <g clip-path="url(#a)">
        <g clip-path="url(#b)">
            <g clip-path="url(#c)">
                <g clip-path="url(#d)">
                    <path fill="#0080FF" d="M 2135.269531 -3.136719 L 1983.085938 155.527344 L 2141.542969 308.085938 L 2293.726562 149.421875 Z M 2135.269531 -3.136719" />
                </g>
            </g>
        </g>
    </g>
    <g clip-path="url(#e)">
        <g clip-path="url(#f)">
            <g clip-path="url(#g)">
                <g clip-path="url(#h)">
                    <path fill="#0080FF" d="M 1992.617188 70.773438 L 1840.433594 229.441406 L 1998.890625 382 L 2151.070312 223.335938 Z M 1992.617188 70.773438" />
                </g>
            </g>
        </g>
    </g>
    <g clip-path="url(#i)">
        <g clip-path="url(#j)">
            <g clip-path="url(#k)">
                <g clip-path="url(#l)">
                    <path fill="#0080FF" d="M 2061.664062 -41.460938 L 1837.796875 191.941406 L 2070.894531 416.367188 L 2294.761719 182.964844 Z M 2061.664062 -41.460938" />
                </g>
            </g>
        </g>
    </g>
</svg>